<?xml version="1.0" standalone="no"?>
<!DOCTYPE svg PUBLIC "-//W3C//DTD SVG 20010904//EN"
 "http://www.w3.org/TR/2001/REC-SVG-20010904/DTD/svg10.dtd">
<svg version="1.0" xmlns="http://www.w3.org/2000/svg"
 width="700.000000pt" height="700.000000pt" viewBox="0 0 700.000000 700.000000"
 preserveAspectRatio="xMidYMid meet">
<metadata>
Created by potrace 1.11, written by Peter Selinger 2001-2013
</metadata>
<g transform="translate(0.000000,700.000000) scale(0.100000,-0.100000)"
fill="#000000" stroke="none">
<path d="M3298 6845 c-1 -2 -41 -6 -88 -9 -560 -42 -1170 -265 -1640 -599
-247 -175 -506 -420 -691 -652 -93 -117 -189 -261 -206 -310 -61 -180 91 -374
281 -360 101 7 172 54 242 158 95 142 188 251 349 412 197 198 417 359 665
489 263 137 601 247 865 282 28 3 52 7 55 9 31 18 480 26 635 11 274 -26 488
-78 760 -183 434 -168 873 -495 1161 -864 336 -430 511 -858 589 -1434 11 -77
14 -472 5 -545 -5 -36 -11 -87 -14 -115 -3 -27 -8 -61 -11 -75 -3 -14 -7 -43
-10 -64 -3 -22 -17 -87 -31 -145 -125 -512 -368 -944 -744 -1322 -269 -272
-568 -471 -915 -612 -107 -44 -320 -114 -373 -123 -15 -3 -43 -9 -62 -14 -35
-9 -48 -12 -150 -29 -95 -17 -123 -21 -205 -28 -102 -10 -438 -10 -530 -1
-413 43 -786 164 -1155 376 -45 26 -220 142 -230 152 -3 3 -36 29 -75 58 -99
75 -263 230 -360 339 -76 85 -195 235 -195 246 0 5 87 -10 98 -17 4 -2 23 -7
42 -10 19 -3 100 -19 180 -36 80 -17 156 -34 170 -37 186 -40 353 89 352 272
-1 122 -75 223 -194 263 -35 12 -48 16 -108 27 -53 10 -72 14 -88 19 -9 3 -28
7 -42 10 -34 5 -406 84 -455 96 -22 5 -116 26 -210 46 -93 20 -179 38 -190 41
-11 2 -48 7 -81 10 -89 8 -155 -16 -219 -82 -61 -62 -72 -94 -129 -377 -10
-47 -15 -69 -41 -188 -14 -63 -28 -131 -31 -150 -3 -19 -8 -38 -10 -41 -2 -3
-6 -21 -9 -40 -6 -33 -29 -144 -76 -354 -31 -140 -30 -208 5 -278 31 -65 69
-100 145 -135 96 -44 222 -19 299 59 56 57 69 95 117 324 20 99 46 209 49 212
2 3 9 -4 15 -15 12 -22 130 -169 190 -237 101 -113 283 -286 401 -381 520
-417 1142 -667 1815 -730 164 -16 550 -9 690 11 189 28 207 31 320 56 376 83
729 227 1062 436 59 37 113 71 118 75 6 5 53 40 105 79 609 458 1054 1127
1239 1864 11 44 23 94 26 110 10 54 43 249 49 295 27 199 27 652 1 800 -3 14
-7 45 -10 70 -5 41 -17 112 -30 180 -8 40 -19 95 -20 100 -1 3 -5 19 -9 35
-165 682 -530 1286 -1056 1746 -47 41 -112 95 -145 119 -33 25 -63 49 -66 53
-4 5 -16 14 -27 20 -12 7 -61 39 -109 72 -100 68 -97 66 -218 135 -184 105
-390 195 -600 263 -109 35 -246 75 -288 83 -12 2 -33 6 -47 9 -36 8 -71 14
-105 20 -16 3 -37 8 -45 10 -8 2 -37 7 -65 10 -27 3 -70 8 -95 11 -25 4 -61 8
-80 11 -44 5 -507 12 -512 8z"/>
<path d="M3604 5055 c-65 -29 -111 -75 -142 -143 l-25 -55 0 -686 c0 -377 3
-704 7 -726 4 -22 18 -58 31 -80 34 -58 1383 -1404 1425 -1421 84 -36 220 -17
296 41 39 30 76 84 89 130 12 44 14 138 2 153 -5 6 -7 12 -3 12 4 0 -3 19 -15
42 -14 29 -230 252 -647 669 l-626 627 -1 623 0 624 -24 49 c-70 142 -229 203
-367 141z"/>
</g>
</svg>
